<svg xmlns="http://www.w3.org/2000/svg" xmlns:xlink="http://www.w3.org/1999/xlink" xmlns:lucid="lucid" width="1610.21" height="1922"><g transform="translate(346.8723488350803 681)" lucid:page-tab-id="pH1FFJM5_vH5"><path d="M-500-1000h2000v2500H-500z" fill="#fff"/><path d="M-325.87-351.85a6 6 0 0 1 6-6h1556.2a6 6 0 0 1 6 6V534a6 6 0 0 1-6 6h-1556.2a6 6 0 0 1-6-6z" stroke="#3a414a" stroke-width="2" fill="#f2f3f5"/><use xlink:href="#a" transform="matrix(1,0,0,1,-320.8723488350803,-352.84451340922317) translate(0 21.466666666666665)"/><use xlink:href="#b" transform="matrix(1,0,0,1,-320.8723488350803,-352.84451340922317) translate(41.06666666666667 21.466666666666665)"/><use xlink:href="#c" transform="matrix(1,0,0,1,-320.8723488350803,-352.84451340922317) translate(87.44444444444446 21.466666666666665)"/><use xlink:href="#d" transform="matrix(1,0,0,1,-320.8723488350803,-352.84451340922317) translate(163.53333333333336 21.466666666666665)"/><path d="M338.23-654a6 6 0 0 1 6-6h228a6 6 0 0 1 6 6v168a6 6 0 0 1-6 6h-228a6 6 0 0 1-6-6z" stroke="#3a414a" stroke-width="2" fill="#fff"/><use xlink:href="#e" transform="matrix(1,0,0,1,350.23209852189234,-648) translate(68.82222222222222 21.466666666666665)"/><path d="M482.63-529.3h-8.48v-3.4h8.48c8.16 0 12.08-3.6 12.08-11 0-6.34-3.67-10.34-11.03-11.8-.8-.16-1.36-.82-1.36-1.58-.4-6.14-3.9-8.37-6.8-8.37-2.07.05-3.83.96-5.1 2.64-.57.7-1.6.85-2.4.3-.25-.2-.4-.47-.57-.77-1.04-3.14-2.56-5.52-4.96-7.86-5.36-5.42-12.96-6.9-20-3.85-6.32 2.9-10.24 8.72-10.48 15.72 0 .7.07 1.3.15 2.08.08.86-.48 1.62-1.28 1.82-3.44.86-9.28 3.45-9.28 11.46v.8c.4 6.04 5.43 10.35 12.07 10.35h8.48v3.4h-8.48c-8.48 0-14.96-5.68-15.44-13.5v-1.05c-.24-6.7 3.92-12.52 10.4-14.35v-1.06c.24-11.68 9.92-20.95 21.6-20.7 5.68.15 10.56 2.23 14.64 6.4 2.08 2.02 3.52 4.1 4.72 6.78 1.75-1.37 3.67-1.97 5.9-2.03 4.5 0 9.2 3.2 10.17 10.25 8.08 2.07 12.56 7.3 12.56 14.85-.08 9.33-5.6 14.45-15.6 14.45zm-18.08 0h-12.72v-3.4h12.72z" stroke="#fff" stroke-opacity="0" fill="#232f3e"/><path d="M469.33-530.9c-.47 0-.86-.16-1.18-.5l-9.58-9.57 2.4-2.42 8.36 8.33 8.37-8.38 2.4 2.42-9.56 9.56c-.33.37-.74.56-1.2.57z" stroke="#fff" stroke-opacity="0" fill="#232f3e"/><path d="M467.63-558.15h3.4v23.95h-3.4v-23.95zM455.4-547.35l-8.37-8.38-8.38 8.38-2.38-2.42 9.55-9.56c.67-.67 1.72-.67 2.4 0l9.57 9.56z" stroke="#fff" stroke-opacity="0" fill="#232f3e"/><path d="M445.33-558.15h3.4v28.75h-3.4v-28.75z" stroke="#fff" stroke-opacity="0" fill="#232f3e"/><path d="M482.62-529.3h-48.94c-8.47 0-14.95-5.68-15.43-13.48v-1.07c-.24-6.74 3.92-12.5 10.4-14.4v-1.05-.8c.56-8.12 5.2-14.7 12.55-18.06 8.24-3.54 17.27-1.82 23.6 4.57 2.15 2.08 3.6 4.16 4.8 6.8 1.75-1.32 3.67-1.98 5.9-1.98 4.48 0 9.2 3.2 10.16 10.24 8.16 2.02 12.55 7.3 12.55 14.85-.06 9.28-5.58 14.4-15.58 14.4zm-32.94-47.18c-2.64 0-4.88.45-7.28 1.47-6.32 2.93-10.16 8.75-10.4 15.7 0 .76 0 1.42.16 2.13.08.86-.48 1.67-1.28 1.87-3.43.86-9.27 3.4-9.27 11.45v.92c.33 5.93 5.45 10.18 12.08 10.18h48.94c8.16 0 12.08-3.6 12.08-11 0-6.33-3.68-10.33-11.04-11.8-.8-.15-1.28-.8-1.36-1.57-.32-6.2-3.92-8.37-6.8-8.37-2.07.07-3.83.98-5.1 2.65-.57.7-1.6.86-2.4.3-.25-.2-.4-.45-.57-.76-1.04-3.1-2.56-5.53-4.96-7.86-3.52-3.55-7.76-5.32-12.8-5.32z" stroke="#fff" stroke-opacity="0" fill="#fff" fill-opacity="0"/><path d="M-295.22 211.35a6 6 0 0 1 6-6h1494.9a6 6 0 0 1 6 6V501a6 6 0 0 1-6 6H-289.2a6 6 0 0 1-6-6z" stroke="#3a414a" stroke-width="2" fill="#fff3d9"/><use xlink:href="#f" transform="matrix(1,0,0,1,-290.2224676102776,210.35103626306886) translate(0 290.47108266666663)"/><path d="M238.23 317.08a6 6 0 0 1 6-6h428a6 6 0 0 1 6 6v148a6 6 0 0 1-6 6h-428a6 6 0 0 1-6-6z" stroke="#3a414a" stroke-width="2" fill="#fff"/><path d="M348.23 391.08h10v20.04h-10v-20.04zM313.2 391.08h10v20.04h-10v-20.04zM278.27 391.08h10v20.04h-10v-20.04z" stroke="#000" stroke-opacity="0" fill="#669df6"/><path d="M323.2 386.16h-10v-20.04h10v20.04z" stroke="#000" stroke-opacity="0" fill="#4285f4"/><path d="M278.27 386.04h80.04v10h-80.03v-10z" stroke="#000" stroke-opacity="0" fill="#669df6"/><path d="M288.23 341.07h60v24.96h-60v-24.96z" stroke="#000" stroke-opacity="0" fill="#aecbfa"/><path d="M318.23 341.07h30v24.96h-30v-24.96z" stroke="#000" stroke-opacity="0" fill="#669df6"/><path d="M338.27 411.12h30v30h-30v-30zM268.23 411.12h30v30h-30v-30z" stroke="#000" stroke-opacity="0" fill="#aecbfa"/><path d="M283.2 411.12h15v30h-15v-30z" stroke="#000" stroke-opacity="0" fill="#669df6"/><path d="M303.23 411.12h30v30h-30v-30z" stroke="#000" stroke-opacity="0" fill="#aecbfa"/><path d="M318.23 411.12h15v30h-15v-30zM353.27 411.12h15v30h-15v-30z" stroke="#000" stroke-opacity="0" fill="#669df6"/><path d="M285.23 341.88v98.4h66v-98.4z" stroke="#000" stroke-opacity="0" fill-opacity="0"/><path d="M398.23 337.08a6 6 0 0 1 6-6h268a6 6 0 0 1 6 6v108a6 6 0 0 1-6 6h-268a6 6 0 0 1-6-6z" stroke="#000" stroke-opacity="0" fill="#fff" fill-opacity="0"/><use xlink:href="#g" transform="matrix(1,0,0,1,403.23209852189234,336.07774329538836) translate(0 30.053333333333324)"/><use xlink:href="#h" transform="matrix(1,0,0,1,403.23209852189234,336.07774329538836) translate(122.01777777777775 30.053333333333324)"/><use xlink:href="#i" transform="matrix(1,0,0,1,403.23209852189234,336.07774329538836) translate(0 64.7111111111111)"/><use xlink:href="#j" transform="matrix(1,0,0,1,403.23209852189234,336.07774329538836) translate(78.13333333333333 64.7111111111111)"/><use xlink:href="#k" transform="matrix(1,0,0,1,403.23209852189234,336.07774329538836) translate(143.51999999999998 64.7111111111111)"/><path d="M-299.38-301.95a6 6 0 0 1 6-6h1503.23a6 6 0 0 1 6 6V-12.3a6 6 0 0 1-6 6H-293.38a6 6 0 0 1-6-6z" stroke="#3a414a" stroke-width="2" fill="#fff3d9"/><use xlink:href="#l" transform="matrix(1,0,0,1,-294.38395073905383,-302.9513876300358) translate(0 21.466666666666665)"/><path d="M238.23-254a6 6 0 0 1 6-6h428a6 6 0 0 1 6 6v148a6 6 0 0 1-6 6h-428a6 6 0 0 1-6-6z" stroke="#3a414a" stroke-width="2" fill="#fff"/><path d="M348.23-180h10v20.04h-10V-180zM313.2-180h10v20.04h-10V-180zM278.27-180h10v20.04h-10V-180z" stroke="#000" stroke-opacity="0" fill="#669df6"/><path d="M323.2-184.92h-10v-20.04h10v20.04z" stroke="#000" stroke-opacity="0" fill="#4285f4"/><path d="M278.27-185.04h80.04v10h-80.03v-10z" stroke="#000" stroke-opacity="0" fill="#669df6"/><path d="M288.23-230h60v24.96h-60V-230z" stroke="#000" stroke-opacity="0" fill="#aecbfa"/><path d="M318.23-230h30v24.96h-30V-230z" stroke="#000" stroke-opacity="0" fill="#669df6"/><path d="M338.27-159.96h30v30h-30v-30zM268.23-159.96h30v30h-30v-30z" stroke="#000" stroke-opacity="0" fill="#aecbfa"/><path d="M283.2-159.96h15v30h-15v-30z" stroke="#000" stroke-opacity="0" fill="#669df6"/><path d="M303.23-159.96h30v30h-30v-30z" stroke="#000" stroke-opacity="0" fill="#aecbfa"/><path d="M318.23-159.96h15v30h-15v-30zM353.27-159.96h15v30h-15v-30z" stroke="#000" stroke-opacity="0" fill="#669df6"/><path d="M285.23-229.2v98.4h66v-98.4z" stroke="#000" stroke-opacity="0" fill-opacity="0"/><path d="M398.23-234a6 6 0 0 1 6-6h268a6 6 0 0 1 6 6v109.3a6 6 0 0 1-6 6h-268a6 6 0 0 1-6-6z" stroke="#000" stroke-opacity="0" fill="#fff" fill-opacity="0"/><use xlink:href="#m" transform="matrix(1,0,0,1,403.23209852189234,-234.99999999999972) translate(0 30.053333333333324)"/><use xlink:href="#h" transform="matrix(1,0,0,1,403.23209852189234,-234.99999999999972) translate(128.67555555555552 30.053333333333324)"/><use xlink:href="#i" transform="matrix(1,0,0,1,403.23209852189234,-234.99999999999972) translate(0 64.7111111111111)"/><use xlink:href="#j" transform="matrix(1,0,0,1,403.23209852189234,-234.99999999999972) translate(78.13333333333333 64.7111111111111)"/><use xlink:href="#k" transform="matrix(1,0,0,1,403.23209852189234,-234.99999999999972) translate(143.51999999999998 64.7111111111111)"/><path d="M458.23-476.5v190.64" stroke="#3a414a" stroke-width="5" fill="none"/><path d="M460.7-476.44h-4.94V-479h4.95z" stroke="#3a414a" stroke-width=".05" fill="#3a414a"/><path d="M458.23-269.1l-4.63-14.26h9.27z" stroke="#3a414a" stroke-width="5" fill="#3a414a"/><path d="M610.05 14.08a6 6 0 0 1 6-6h590.77a6 6 0 0 1 6 6v174.6a6 6 0 0 1-6 6H616.05a6 6 0 0 1-6-6z" stroke="#3a414a" stroke-width="2" fill="#fff3d9"/><use xlink:href="#n" transform="matrix(1,0,0,1,615.0531935975246,13.078745690629788) translate(500.44444444444446 21.466666666666665)"/><path d="M-296.35 11.7a6 6 0 0 1 6-6h593.02a6 6 0 0 1 6 6v174.42a6 6 0 0 1-6 6h-593.02a6 6 0 0 1-6-6z" stroke="#3a414a" stroke-width="2" fill="#fff3d9"/><use xlink:href="#o" transform="matrix(1,0,0,1,-291.35264945947574,10.711999411289781) translate(0 21.466666666666665)"/><path d="M-91.77-74.57a6 6 0 0 1 6-6h1088a6 6 0 0 1 6 6v360.44a6 6 0 0 1-6 6h-1088a6 6 0 0 1-6-6z" stroke="#3a414a" stroke-width="2" fill="#e3fae3"/><use xlink:href="#p" transform="matrix(1,0,0,1,-86.76790147810766,-75.56959047947777) translate(420.6 21.466666666666665)"/><use xlink:href="#q" transform="matrix(1,0,0,1,-86.76790147810766,-75.56959047947777) translate(520.2 21.466666666666665)"/><use xlink:href="#r" transform="matrix(1,0,0,1,-86.76790147810766,-75.56959047947777) translate(609.4444444444445 21.466666666666665)"/><path d="M-31.77 30.78a6 6 0 0 1 6-6h428a6 6 0 0 1 6 6v148a6 6 0 0 1-6 6h-428a6 6 0 0 1-6-6z" stroke="#3a414a" stroke-width="2" fill="#fff"/><path d="M148.23 50.78a6 6 0 0 1 6-6h248a6 6 0 0 1 6 6v109.3a6 6 0 0 1-6 6h-248a6 6 0 0 1-6-6z" stroke="#000" stroke-opacity="0" fill="#fff" fill-opacity="0"/><use xlink:href="#s" transform="matrix(1,0,0,1,153.23209852189234,49.78144578359111) translate(0 30.053333333333324)"/><use xlink:href="#t" transform="matrix(1,0,0,1,153.23209852189234,49.78144578359111) translate(0 69.00444444444442)"/><use xlink:href="#u" transform="matrix(1,0,0,1,153.23209852189234,49.78144578359111) translate(144.2622222222222 69.00444444444442)"/><use xlink:href="#v" transform="matrix(1,0,0,1,153.23209852189234,49.78144578359111) translate(0 103.6622222222222)"/><use xlink:href="#w" transform="matrix(1,0,0,1,153.23209852189234,49.78144578359111) translate(119.83999999999997 103.6622222222222)"/><path d="M33.03 90.82h38.4v34.14h-38.4V90.81z" stroke="#000" stroke-opacity="0" fill="#aecbfa"/><path d="M45.83 51h12.8v22.75h-12.8V51zM20.23 51h12.8v22.75h-12.8V51zM71.43 51h12.8v22.75h-12.8V51z" stroke="#000" stroke-opacity="0" fill="#669df6"/><path d="M45.83 142.02h12.8v22.76h-12.8v-22.76zM20.23 142.02h12.8v22.76h-12.8v-22.76zM71.43 142.02h12.8v22.76h-12.8v-22.76z" stroke="#000" stroke-opacity="0" fill="#4285f4"/><path d="M90.63 113.58V102.2h25.6v11.38h-25.6zM90.63 136.33v-11.38h25.6v11.38h-25.6zM90.63 90.82V79.44h25.6v11.38h-25.6z" stroke="#000" stroke-opacity="0" stroke-width="0" fill="#4285f4"/><path d="M-11.77 113.58V102.2h25.6v11.38h-25.6zM-11.77 136.33v-11.38h25.6v11.38h-25.6zM-11.77 90.82V79.44h25.6v11.38h-25.6z" stroke="#000" stroke-opacity="0" stroke-width="0" fill="#669df6"/><path d="M7.43 68.06v79.65h89.6V68.07zm76.8 68.26H20.24V79.45h63.97z" stroke="#000" stroke-opacity="0" fill="#aecbfa"/><path d="M33.03 124.95h38.4l-19.2-17.06-19.2 17.05z" stroke="#000" stroke-opacity="0" fill="#669df6"/><path d="M52.23 107.9l19.2 17.05V90.82l-19.2 17.07z" stroke="#000" stroke-opacity="0" fill="#4285f4"/><path d="M508.23 32.52a6 6 0 0 1 6-6h428a6 6 0 0 1 6 6v148a6 6 0 0 1-6 6h-428a6 6 0 0 1-6-6z" stroke="#3a414a" stroke-width="2" fill="#fff"/><path d="M688.23 52.52a6 6 0 0 1 6-6h248a6 6 0 0 1 6 6v109.3a6 6 0 0 1-6 6h-248a6 6 0 0 1-6-6z" stroke="#000" stroke-opacity="0" fill="#fff" fill-opacity="0"/><use xlink:href="#x" transform="matrix(1,0,0,1,693.2320985218923,51.518450769240715) translate(0 30.053333333333324)"/><use xlink:href="#t" transform="matrix(1,0,0,1,693.2320985218923,51.518450769240715) translate(0 69.00444444444442)"/><use xlink:href="#y" transform="matrix(1,0,0,1,693.2320985218923,51.518450769240715) translate(144.2622222222222 69.00444444444442)"/><use xlink:href="#v" transform="matrix(1,0,0,1,693.2320985218923,51.518450769240715) translate(0 103.6622222222222)"/><use xlink:href="#w" transform="matrix(1,0,0,1,693.2320985218923,51.518450769240715) translate(119.83999999999997 103.6622222222222)"/><path d="M573.03 92.56h38.4v34.13h-38.4V92.55z" stroke="#000" stroke-opacity="0" fill="#aecbfa"/><path d="M585.83 52.73h12.8V75.5h-12.8V52.72zM560.23 52.73h12.8V75.5h-12.8V52.72zM611.43 52.73h12.8V75.5h-12.8V52.72z" stroke="#000" stroke-opacity="0" fill="#669df6"/><path d="M585.83 143.76h12.8v22.76h-12.8v-22.76zM560.23 143.76h12.8v22.76h-12.8v-22.76zM611.43 143.76h12.8v22.76h-12.8v-22.76z" stroke="#000" stroke-opacity="0" fill="#4285f4"/><path d="M630.63 115.3v-11.37h25.6v11.38h-25.6zM630.63 138.07V126.7h25.6v11.37h-25.6zM630.63 92.56V81.18h25.6v11.38h-25.6z" stroke="#000" stroke-opacity="0" stroke-width="0" fill="#4285f4"/><path d="M528.23 115.3v-11.37h25.6v11.38h-25.6zM528.23 138.07V126.7h25.6v11.37h-25.6zM528.23 92.56V81.18h25.6v11.38h-25.6z" stroke="#000" stroke-opacity="0" stroke-width="0" fill="#669df6"/><path d="M547.43 69.8v79.65h89.6V69.8zm76.8 68.26h-64V81.2h64z" stroke="#000" stroke-opacity="0" fill="#aecbfa"/><path d="M573.03 126.7h38.4l-19.2-17.08-19.2 17.07z" stroke="#000" stroke-opacity="0" fill="#669df6"/><path d="M592.23 109.62l19.2 17.07V92.55l-19.2 17.06z" stroke="#000" stroke-opacity="0" fill="#4285f4"/><path d="M458.23-96.5v43.36a6 6 0 0 1-6 6h-316.1a6 6 0 0 0-6 6v21" stroke="#3a414a" stroke-width="5" fill="none"/><path d="M460.7-96.44h-4.94V-99h4.95z" stroke="#3a414a" stroke-width=".05" fill="#3a414a"/><path d="M130.13-3.38l-4.64-14.26h9.26z" stroke="#3a414a" stroke-width="5" fill="#3a414a"/><path d="M137.03 195.62v49.98a6 6 0 0 0 6 6h309.2a6 6 0 0 1 6 6v27.62" stroke="#3a414a" stroke-width="5" fill="none"/><path d="M139.5 195.7h-4.94v-2.58h4.95z" stroke="#3a414a" stroke-width=".05" fill="#3a414a"/><path d="M458.23 302l-4.63-14.28h9.27z" stroke="#3a414a" stroke-width="5" fill="#3a414a"/><path d="M147.48 592.2a6 6 0 0 1 6-6h609.5a6 6 0 0 1 6 6V874a6 6 0 0 1-6 6h-609.5a6 6 0 0 1-6-6z" stroke="#3a414a" stroke-width="2" fill="#f2f3f5"/><use xlink:href="#z" transform="matrix(1,0,0,1,152.48209852189228,591.2099999999999) translate(0 21.466666666666665)"/><path d="M169.47 637.33a6 6 0 0 1 6-6h562.97a6 6 0 0 1 6 6V840.2a6 6 0 0 1-6 6H175.47a6 6 0 0 1-6-6z" stroke="#3a414a" stroke-width="2" fill="#fff3d9"/><use xlink:href="#A" transform="matrix(1,0,0,1,174.46885348877976,636.3293393665158) translate(0 21.466666666666665)"/><path d="M224.44 699.18a6 6 0 0 1 6-6H438.3a6 6 0 0 1 6 6v104.8a6 6 0 0 1-6 6H230.44a6 6 0 0 1-6-6z" stroke="#3a414a" stroke-width="2" fill="#fff0fb"/><use xlink:href="#B" transform="matrix(1,0,0,1,229.43574090599822,698.1782624434387) translate(0 21.466666666666665)"/><use xlink:href="#C" transform="matrix(1,0,0,1,229.43574090599822,698.1782624434387) translate(0 49.288888888888884)"/><path d="M464.44 698.6a6 6 0 0 1 6-6H678.3a6 6 0 0 1 6 6v105.38a6 6 0 0 1-6 6H470.44a6 6 0 0 1-6-6z" stroke="#3a414a" stroke-width="2" fill="#fff0fb"/><use xlink:href="#B" transform="matrix(1,0,0,1,469.4357409059979,697.5866787330312) translate(0 21.466666666666665)"/><use xlink:href="#D" transform="matrix(1,0,0,1,469.4357409059979,697.5866787330312) translate(0 49.288888888888884)"/><path d="M-212.08 932.2a6 6 0 0 1 6-6h609.5a6 6 0 0 1 6 6V1214a6 6 0 0 1-6 6h-609.5a6 6 0 0 1-6-6z" stroke="#3a414a" stroke-width="2" fill="#f2f3f5"/><use xlink:href="#E" transform="matrix(1,0,0,1,-207.0844340710894,931.2099999999998) translate(0 21.466666666666665)"/><path d="M-190.1 977.33a6 6 0 0 1 6-6h562.97a6 6 0 0 1 6 6v202.88a6 6 0 0 1-6 6H-184.1a6 6 0 0 1-6-6z" stroke="#3a414a" stroke-width="2" fill="#fff3d9"/><use xlink:href="#F" transform="matrix(1,0,0,1,-185.09767910420237,976.3293393665157) translate(0 21.466666666666665)"/><path d="M-122.6 1025.7a6 6 0 0 1 6-6h428a6 6 0 0 1 6 6V1154a6 6 0 0 1-6 6h-428a6 6 0 0 1-6-6z" stroke="#3a414a" stroke-width="2" fill="#fff"/><path d="M37.32 1065.36a6 6 0 0 1 6-6h248a6 6 0 0 1 6 6v114.85a6 6 0 0 1-6 6h-248a6 6 0 0 1-6-6z" stroke="#000" stroke-opacity="0" fill="#fff" fill-opacity="0"/><use xlink:href="#G" transform="matrix(1,0,0,1,42.31725123763573,1064.3566666666666) translate(0 30.053333333333324)"/><path d="M-49.12 1078.08h26.47v23.53h-26.47v-23.52z" stroke="#000" stroke-opacity="0" fill="#aecbfa"/><path d="M-40.3 1050.63h8.83v15.7h-8.83v-15.7zM-57.94 1050.63h8.82v15.7h-8.82v-15.7zM-22.65 1050.63h8.82v15.7h-8.82v-15.7z" stroke="#000" stroke-opacity="0" fill="#669df6"/><path d="M-40.3 1113.38h8.83v15.7h-8.83v-15.7zM-57.94 1113.38h8.82v15.7h-8.82v-15.7zM-22.65 1113.38h8.82v15.7h-8.82v-15.7z" stroke="#000" stroke-opacity="0" fill="#4285f4"/><path d="M-9.4 1093.77v-7.85H8.22v7.85H-9.4zM-9.4 1109.46v-7.85H8.22v7.86H-9.4zM-9.4 1078.08v-7.84H8.22v7.84H-9.4z" stroke="#000" stroke-opacity="0" stroke-width="0" fill="#4285f4"/><path d="M-80 1093.77v-7.85h17.65v7.85H-80zM-80 1109.46v-7.85h17.65v7.86H-80zM-80 1078.08v-7.84h17.65v7.84H-80z" stroke="#000" stroke-opacity="0" stroke-width="0" fill="#669df6"/><path d="M-66.77 1062.4v54.9H-5v-54.9zm52.93 47.05h-44.1v-39.2h44.1z" stroke="#000" stroke-opacity="0" fill="#aecbfa"/><path d="M-49.12 1101.6h26.47l-13.23-11.75-13.24 11.76z" stroke="#000" stroke-opacity="0" fill="#669df6"/><path d="M-35.88 1089.85l13.23 11.76v-23.52l-13.23 11.77z" stroke="#000" stroke-opacity="0" fill="#4285f4"/><path d="M533.77 932.2a6 6 0 0 1 6-6h609.5a6 6 0 0 1 6 6V1214a6 6 0 0 1-6 6h-609.5a6 6 0 0 1-6-6z" stroke="#3a414a" stroke-width="2" fill="#f2f3f5"/><use xlink:href="#E" transform="matrix(1,0,0,1,538.7734892503684,931.2099999999998) translate(0 21.466666666666665)"/><path d="M555.76 977.33a6 6 0 0 1 6-6h562.97a6 6 0 0 1 6 6v202.88a6 6 0 0 1-6 6H561.76a6 6 0 0 1-6-6z" stroke="#3a414a" stroke-width="2" fill="#fff3d9"/><use xlink:href="#F" transform="matrix(1,0,0,1,560.7602442172554,976.3293393665159) translate(0 21.466666666666665)"/><path d="M623.24 1025.7a6 6 0 0 1 6-6h428a6 6 0 0 1 6 6V1154a6 6 0 0 1-6 6h-428a6 6 0 0 1-6-6z" stroke="#3a414a" stroke-width="2" fill="#fff"/><path d="M783.17 1065.36a6 6 0 0 1 6-6h248a6 6 0 0 1 6 6v114.85a6 6 0 0 1-6 6h-248a6 6 0 0 1-6-6z" stroke="#000" stroke-opacity="0" fill="#fff" fill-opacity="0"/><use xlink:href="#G" transform="matrix(1,0,0,1,788.1751745590934,1064.3566666666666) translate(0 30.053333333333324)"/><path d="M696.74 1078.08h26.47v23.53h-26.46v-23.52z" stroke="#000" stroke-opacity="0" fill="#aecbfa"/><path d="M705.56 1050.63h8.83v15.7h-8.84v-15.7zM687.92 1050.63h8.82v15.7h-8.82v-15.7zM723.2 1050.63h8.83v15.7h-8.82v-15.7z" stroke="#000" stroke-opacity="0" fill="#669df6"/><path d="M705.56 1113.38h8.83v15.7h-8.84v-15.7zM687.92 1113.38h8.82v15.7h-8.82v-15.7zM723.2 1113.38h8.83v15.7h-8.82v-15.7z" stroke="#000" stroke-opacity="0" fill="#4285f4"/><path d="M736.44 1093.77v-7.85h17.65v7.85h-17.66zM736.44 1109.46v-7.85h17.65v7.86h-17.66zM736.44 1078.08v-7.84h17.65v7.84h-17.66z" stroke="#000" stroke-opacity="0" stroke-width="0" fill="#4285f4"/><path d="M665.86 1093.77v-7.85h17.64v7.85h-17.64zM665.86 1109.46v-7.85h17.64v7.86h-17.64zM665.86 1078.08v-7.84h17.64v7.84h-17.64z" stroke="#000" stroke-opacity="0" stroke-width="0" fill="#669df6"/><path d="M679.1 1062.4v54.9h61.75v-54.9zm52.92 47.05h-44.1v-39.2h44.1z" stroke="#000" stroke-opacity="0" fill="#aecbfa"/><path d="M696.74 1101.6h26.47l-13.23-11.75-13.23 11.76z" stroke="#000" stroke-opacity="0" fill="#669df6"/><path d="M709.97 1089.85l13.24 11.76v-23.52l-13.23 11.77z" stroke="#000" stroke-opacity="0" fill="#4285f4"/><path d="M458.23 474.58v130.9" stroke="#3a414a" stroke-width="5" fill="none"/><path d="M460.7 474.64h-4.94v-2.56h4.95z" stroke="#3a414a" stroke-width=".05" fill="#3a414a"/><path d="M458.23 622.24l-4.63-14.27h9.27z" stroke="#3a414a" stroke-width="5" fill="#3a414a"/><path d="M456.95 849.7V894a6 6 0 0 1-6 6H57.75a6 6 0 0 0-6 6v87.84" stroke="#3a414a" stroke-width="5" fill="none"/><path d="M459.43 849.77h-4.95v-2.56h4.95z" stroke="#3a414a" stroke-width=".05" fill="#3a414a"/><path d="M51.76 1010.6l-4.64-14.26h9.28z" stroke="#3a414a" stroke-width="5" fill="#3a414a"/><path d="M456.95 849.7V894a6 6 0 0 0 6 6h374.3a6 6 0 0 1 6 6v87.84" stroke="#3a414a" stroke-width="5" fill="none"/><path d="M459.43 849.77h-4.95v-2.56h4.95z" stroke="#3a414a" stroke-width=".05" fill="#3a414a"/><path d="M843.24 1010.6l-4.63-14.26h9.28z" stroke="#3a414a" stroke-width="5" fill="#3a414a"/><defs><path d="M79 0v-716h104l359 570h4c-7-184-3-380-4-570h85V0h-88L164-597h-4c7 193 3 398 4 597H79" id="H"/><path d="M515-118C476-44 403 18 289 16 131 10 35-94 35-254c0-156 90-272 247-272 165 0 251 117 242 287H120c6 106 68 173 172 178 77 1 122-43 151-92zm-79-191c-10-84-59-139-154-140-92 2-139 63-157 140h311" id="I"/><path d="M327-5C223 37 115-22 115-134v-299H25v-77h90v-144h85v144h125v77H200v278c0 54 20 83 70 84 24 0 41-7 57-17v83" id="J"/><g id="a"><use transform="matrix(0.022222222222222223,0,0,0.022222222222222223,0,0)" xlink:href="#H"/><use transform="matrix(0.022222222222222223,0,0,0.022222222222222223,15.68888888888889,0)" xlink:href="#I"/><use transform="matrix(0.022222222222222223,0,0,0.022222222222222223,27.822222222222223,0)" xlink:href="#J"/></g><path d="M79 0v-716h85v309h368v-309h85V0h-85v-326H164V0H79" id="K"/><path d="M412-74c-30 50-88 88-165 90C121 18 58-64 58-189v-321h85v308c-3 91 43 141 122 141 92 0 147-71 147-161v-288h85V0h-81v-74h-4" id="L"/><path d="M565-255c0 158-90 271-244 271-83 0-140-41-174-91h-4V0H62v-716h85c-1 94 3 194-4 282h4c33-51 90-92 174-92 154 0 244 113 244 271zm-422 0c0 112 63 194 169 194s168-82 168-194c0-113-62-194-168-194s-169 82-169 194" id="M"/><g id="b"><use transform="matrix(0.022222222222222223,0,0,0.022222222222222223,0,0)" xlink:href="#K"/><use transform="matrix(0.022222222222222223,0,0,0.022222222222222223,15.466666666666667,0)" xlink:href="#L"/><use transform="matrix(0.022222222222222223,0,0,0.022222222222222223,27.88888888888889,0)" xlink:href="#M"/></g><path d="M543-504c0 130-94 212-223 212H164V0H79v-716h241c129 6 223 81 223 212zm-86 0c0-76-54-131-135-131H164v262h158c81-2 135-55 135-131" id="N"/><path d="M355-423c-105-49-208 27-208 138V0H62v-510h81v82h4c23-70 118-118 208-87v92" id="O"/><path d="M559-255C559-94 458 16 297 16S35-94 35-255s101-271 262-271 262 111 262 271zm-440 0c2 116 69 194 178 194s175-79 177-194c-2-115-68-194-177-194s-176 78-178 194" id="P"/><path d="M147 72c5 114-76 173-186 147v-81c9 5 28 11 42 11 45 0 58-31 59-77v-582h85V72zm18-737c1 33-28 62-61 61-32 1-62-29-61-61-1-33 28-62 61-61 34-1 62 27 61 61" id="Q"/><path d="M516-125C482-48 407 19 293 16 134 10 35-95 35-255c0-161 99-265 258-271 114-2 189 60 220 141l-77 32c-23-58-70-96-147-96-106 0-170 82-170 194 0 111 64 194 170 194 77 0 128-39 151-96" id="R"/><g id="c"><use transform="matrix(0.022222222222222223,0,0,0.022222222222222223,0,0)" xlink:href="#N"/><use transform="matrix(0.022222222222222223,0,0,0.022222222222222223,12.755555555555556,0)" xlink:href="#O"/><use transform="matrix(0.022222222222222223,0,0,0.022222222222222223,20.533333333333335,0)" xlink:href="#P"/><use transform="matrix(0.022222222222222223,0,0,0.022222222222222223,33.733333333333334,0)" xlink:href="#Q"/><use transform="matrix(0.022222222222222223,0,0,0.022222222222222223,38.37777777777778,0)" xlink:href="#I"/><use transform="matrix(0.022222222222222223,0,0,0.022222222222222223,50.84444444444445,0)" xlink:href="#R"/><use transform="matrix(0.022222222222222223,0,0,0.022222222222222223,62.84444444444445,0)" xlink:href="#J"/></g><path d="M146-322c0 178 75 312 156 414l-62 44C126 5 21-214 78-464c30-126 92-233 162-316l62 44c-81 102-156 236-156 414" id="S"/><path d="M321 16c-78 3-146-45-174-91h-4c7 91 3 194 4 291H62v-726h81v76h4c33-51 90-92 174-92 154 0 244 113 244 271S475 9 321 16zM143-255c0 112 63 194 169 194s168-82 168-194c0-113-62-194-168-194s-169 82-169 194" id="T"/><path d="M61-275v-70h317v70H61" id="U"/><path d="M289-449c-89 0-142 73-142 162V0H62v-510h81v75h4c24-47 93-93 165-91 123-2 189 79 189 199V0h-85v-314c2-92-45-135-127-135" id="V"/><path d="M293-449c-90 0-146 75-146 165V0H62v-716h85c-1 94 3 193-4 281h4c24-48 93-92 166-91 126 1 191 76 191 199V0h-85v-314c0-87-45-135-126-135" id="W"/><path d="M392-73c-31 48-86 88-165 89C115 13 35-45 35-154c0-119 95-169 215-172 58 0 110 13 146 33 13-100-54-156-141-157-61 0-112 30-136 70l-64-48c39-58 105-97 200-98 132-2 223 76 222 203V0h-81v-73h-4zm-270-80c-3 90 124 119 194 72 43-26 80-75 80-140-31-21-80-36-133-36-84-2-137 34-141 104" id="X"/><path d="M442-140C447 35 158 58 68-52c-19-21-34-44-43-69l76-34c23 55 72 92 145 96 72 4 139-49 97-113-86-79-296-38-300-207-3-156 242-184 342-97 19 16 34 36 44 60l-74 34c-21-46-62-66-122-68-49-1-104 23-104 69 7 74 100 74 162 93 82 25 146 59 151 148" id="Y"/><path d="M81-780c112 129 220 353 161 600C212-54 151 53 81 136L19 92c81-102 156-236 156-414S100-634 19-736" id="Z"/><g id="d"><use transform="matrix(0.022222222222222223,0,0,0.022222222222222223,0,0)" xlink:href="#S"/><use transform="matrix(0.022222222222222223,0,0,0.022222222222222223,7.133333333333334,0)" xlink:href="#T"/><use transform="matrix(0.022222222222222223,0,0,0.022222222222222223,20.46666666666667,0)" xlink:href="#O"/><use transform="matrix(0.022222222222222223,0,0,0.022222222222222223,28.68888888888889,0)" xlink:href="#Q"/><use transform="matrix(0.022222222222222223,0,0,0.022222222222222223,33.333333333333336,0)" xlink:href="#U"/><use transform="matrix(0.022222222222222223,0,0,0.022222222222222223,43.08888888888889,0)" xlink:href="#V"/><use transform="matrix(0.022222222222222223,0,0,0.022222222222222223,55.51111111111111,0)" xlink:href="#I"/><use transform="matrix(0.022222222222222223,0,0,0.022222222222222223,67.64444444444445,0)" xlink:href="#J"/><use transform="matrix(0.022222222222222223,0,0,0.022222222222222223,75.73333333333333,0)" xlink:href="#U"/><use transform="matrix(0.022222222222222223,0,0,0.022222222222222223,85.4888888888889,0)" xlink:href="#W"/><use transform="matrix(0.022222222222222223,0,0,0.022222222222222223,97.97777777777779,0)" xlink:href="#L"/><use transform="matrix(0.022222222222222223,0,0,0.022222222222222223,110.4,0)" xlink:href="#M"/><use transform="matrix(0.022222222222222223,0,0,0.022222222222222223,123.73333333333333,0)" xlink:href="#U"/><use transform="matrix(0.022222222222222223,0,0,0.022222222222222223,133.48888888888888,0)" xlink:href="#M"/><use transform="matrix(0.022222222222222223,0,0,0.022222222222222223,146.82222222222222,0)" xlink:href="#X"/><use transform="matrix(0.022222222222222223,0,0,0.022222222222222223,158.62222222222223,0)" xlink:href="#Y"/><use transform="matrix(0.022222222222222223,0,0,0.022222222222222223,169.0888888888889,0)" xlink:href="#I"/><use transform="matrix(0.022222222222222223,0,0,0.022222222222222223,181.55555555555557,0)" xlink:href="#Z"/></g><path d="M79 0v-716h85V0H79" id="aa"/><g id="e"><use transform="matrix(0.022222222222222223,0,0,0.022222222222222223,0,0)" xlink:href="#aa"/><use transform="matrix(0.022222222222222223,0,0,0.022222222222222223,5.4,0)" xlink:href="#V"/><use transform="matrix(0.022222222222222223,0,0,0.022222222222222223,17.48888888888889,0)" xlink:href="#J"/><use transform="matrix(0.022222222222222223,0,0,0.022222222222222223,25.022222222222222,0)" xlink:href="#I"/><use transform="matrix(0.022222222222222223,0,0,0.022222222222222223,37.48888888888889,0)" xlink:href="#O"/><use transform="matrix(0.022222222222222223,0,0,0.022222222222222223,45.711111111111116,0)" xlink:href="#V"/><use transform="matrix(0.022222222222222223,0,0,0.022222222222222223,58.13333333333333,0)" xlink:href="#I"/><use transform="matrix(0.022222222222222223,0,0,0.022222222222222223,70.26666666666667,0)" xlink:href="#J"/></g><path d="M210 0L4-510h91c54 136 104 276 160 410l160-410h89L296 0h-86" id="ab"/><path d="M453-75c-33 50-91 91-174 91C126 16 35-97 35-255s91-271 244-271c84 0 141 41 174 92h4c-7-88-3-188-4-282h85V0h-81v-75h-4zM119-255c0 112 63 194 169 194s169-82 169-194-63-194-169-194-169 82-169 194" id="ac"/><g id="f"><use transform="matrix(0.022222222222222223,0,0,0.022222222222222223,0,0)" xlink:href="#ab"/><use transform="matrix(0.022222222222222223,0,0,0.022222222222222223,11.28888888888889,0)" xlink:href="#T"/><use transform="matrix(0.022222222222222223,0,0,0.022222222222222223,24.622222222222224,0)" xlink:href="#R"/><use transform="matrix(0.022222222222222223,0,0,0.022222222222222223,36.62222222222222,0)" xlink:href="#U"/><use transform="matrix(0.022222222222222223,0,0,0.022222222222222223,46.37777777777778,0)" xlink:href="#R"/><use transform="matrix(0.022222222222222223,0,0,0.022222222222222223,58.37777777777778,0)" xlink:href="#U"/><use transform="matrix(0.022222222222222223,0,0,0.022222222222222223,68.13333333333334,0)" xlink:href="#Y"/><use transform="matrix(0.022222222222222223,0,0,0.022222222222222223,78.60000000000001,0)" xlink:href="#W"/><use transform="matrix(0.022222222222222223,0,0,0.022222222222222223,91.08888888888892,0)" xlink:href="#X"/><use transform="matrix(0.022222222222222223,0,0,0.022222222222222223,102.88888888888889,0)" xlink:href="#O"/><use transform="matrix(0.022222222222222223,0,0,0.022222222222222223,110.66666666666669,0)" xlink:href="#I"/><use transform="matrix(0.022222222222222223,0,0,0.022222222222222223,123.13333333333335,0)" xlink:href="#ac"/><use transform="matrix(0.022222222222222223,0,0,0.022222222222222223,136.4666666666667,0)" xlink:href="#U"/><use transform="matrix(0.022222222222222223,0,0,0.022222222222222223,146.22222222222226,0)" xlink:href="#M"/><use transform="matrix(0.022222222222222223,0,0,0.022222222222222223,159.5555555555556,0)" xlink:href="#X"/><use transform="matrix(0.022222222222222223,0,0,0.022222222222222223,171.3555555555556,0)" xlink:href="#Y"/><use transform="matrix(0.022222222222222223,0,0,0.022222222222222223,181.82222222222228,0)" xlink:href="#I"/><use transform="matrix(0.022222222222222223,0,0,0.022222222222222223,194.28888888888895,0)" xlink:href="#U"/><use transform="matrix(0.022222222222222223,0,0,0.022222222222222223,204.04444444444448,0)" xlink:href="#W"/><use transform="matrix(0.022222222222222223,0,0,0.022222222222222223,216.5333333333334,0)" xlink:href="#L"/><use transform="matrix(0.022222222222222223,0,0,0.022222222222222223,228.9555555555556,0)" xlink:href="#M"/></g><path d="M81 0v-716h135V0H81" id="ad"/><path d="M312-404C145-397 205-162 194 0H63v-510h123v64h8c27-45 87-80 156-80 126-2 188 85 188 209V0H407v-301c1-63-34-103-95-103" id="ae"/><path d="M283 8C178 9 114-58 114-163v-235H25v-112h89v-144h131v144h125v112H245v211c0 48 17 72 64 72 30-1 41-8 65-22V-9C347 1 318 8 283 8" id="af"/><path d="M539-120C493-42 422 19 302 16 140 13 35-91 35-254c0-157 103-272 262-272 174 0 265 122 249 302H164c12 74 59 121 140 124 64 1 105-32 129-72zM423-317c-6-84-117-130-195-82-28 18-49 45-59 82h254" id="ag"/><path d="M320-402c-84 3-126 63-126 148V0H63v-510h123v68h8c28-62 125-103 211-72v131c-26-9-51-19-85-19" id="ah"/><path d="M367-52c-31 38-77 68-147 68C110 13 35-47 35-156c0-114 90-167 205-171 52 0 99 8 135 23 8-77-43-116-116-116-53 0-100 28-125 60l-84-66c46-58 114-99 215-100 149-1 239 68 239 212V0H375v-52h-8zM166-156c-5 72 100 86 152 52 32-20 56-57 57-104-27-14-67-24-107-24-66-1-99 23-102 76" id="ai"/><path d="M63 0v-716h131V0H63" id="aj"/><g id="g"><use transform="matrix(0.031111111111111103,0,0,0.031111111111111103,0,0)" xlink:href="#ad"/><use transform="matrix(0.031111111111111103,0,0,0.031111111111111103,9.239999999999998,0)" xlink:href="#ae"/><use transform="matrix(0.031111111111111103,0,0,0.031111111111111103,27.346666666666657,0)" xlink:href="#af"/><use transform="matrix(0.031111111111111103,0,0,0.031111111111111103,39.47999999999999,0)" xlink:href="#ag"/><use transform="matrix(0.031111111111111103,0,0,0.031111111111111103,57.64888888888888,0)" xlink:href="#ah"/><use transform="matrix(0.031111111111111103,0,0,0.031111111111111103,70.74666666666666,0)" xlink:href="#ae"/><use transform="matrix(0.031111111111111103,0,0,0.031111111111111103,89.31999999999998,0)" xlink:href="#ai"/><use transform="matrix(0.031111111111111103,0,0,0.031111111111111103,106.7422222222222,0)" xlink:href="#aj"/></g><path d="M81 0v-716h135v588h303V0H81" id="ak"/><path d="M606-199C601-68 503 0 371 0H81v-716h280c122 4 212 69 219 187 1 77-45 128-96 154v8c68 23 122 80 122 168zm-136-16c3-117-142-91-254-93v185h150c63 0 102-32 104-92zm-22-295c0-54-37-85-93-85H216v171h135c58 0 97-31 97-86" id="al"/><g id="h"><use transform="matrix(0.031111111111111103,0,0,0.031111111111111103,0,0)" xlink:href="#ak"/><use transform="matrix(0.031111111111111103,0,0,0.031111111111111103,17.017777777777773,0)" xlink:href="#al"/></g><path d="M698-112C636-41 546 16 415 16 238 16 128-81 72-210c-37-89-37-208 0-296 60-152 230-263 446-212 66 20 118 56 159 103l-61 59c-46-56-103-95-201-95-172 0-285 115-285 293 0 177 113 293 285 293 103 0 169-49 221-107" id="am"/><path d="M62 0v-716h85V0H62" id="an"/><g id="i"><use transform="matrix(0.026666666666666665,0,0,0.026666666666666665,0,0)" xlink:href="#am"/><use transform="matrix(0.026666666666666665,0,0,0.026666666666666665,19.626666666666665,0)" xlink:href="#an"/><use transform="matrix(0.026666666666666665,0,0,0.026666666666666665,25.2,0)" xlink:href="#P"/><use transform="matrix(0.026666666666666665,0,0,0.026666666666666665,41.04,0)" xlink:href="#L"/><use transform="matrix(0.026666666666666665,0,0,0.026666666666666665,55.946666666666665,0)" xlink:href="#ac"/></g><path d="M79 0v-716h85v635h313V0H79" id="ao"/><g id="j"><use transform="matrix(0.026666666666666665,0,0,0.026666666666666665,0,0)" xlink:href="#ao"/><use transform="matrix(0.026666666666666665,0,0,0.026666666666666665,13.199999999999998,0)" xlink:href="#P"/><use transform="matrix(0.026666666666666665,0,0,0.026666666666666665,29.04,0)" xlink:href="#X"/><use transform="matrix(0.026666666666666665,0,0,0.026666666666666665,43.199999999999996,0)" xlink:href="#ac"/></g><path d="M565-203C560-78 473 0 350 0H79v-716h257c118 5 200 74 205 193 0 75-44 127-98 151v4c65 20 123 82 122 165zm-86-1c0-72-52-122-128-122H164v245h191c74-2 124-53 124-123zm-22-317c0-66-47-114-117-114H164v228h172c71-2 121-47 121-114" id="ap"/><g id="k"><use transform="matrix(0.026666666666666665,0,0,0.026666666666666665,0,0)" xlink:href="#ap"/><use transform="matrix(0.026666666666666665,0,0,0.026666666666666665,16.266666666666666,0)" xlink:href="#X"/><use transform="matrix(0.026666666666666665,0,0,0.026666666666666665,30.426666666666666,0)" xlink:href="#an"/><use transform="matrix(0.026666666666666665,0,0,0.026666666666666665,35.99999999999999,0)" xlink:href="#X"/><use transform="matrix(0.026666666666666665,0,0,0.026666666666666665,50.15999999999999,0)" xlink:href="#V"/><use transform="matrix(0.026666666666666665,0,0,0.026666666666666665,65.06666666666666,0)" xlink:href="#R"/><use transform="matrix(0.026666666666666665,0,0,0.026666666666666665,79.19999999999999,0)" xlink:href="#I"/><use transform="matrix(0.026666666666666665,0,0,0.026666666666666665,94.15999999999998,0)" xlink:href="#O"/></g><path d="M62 0v-510h85V0H62zm103-665c1 33-28 62-61 61-32 1-62-29-61-61-1-33 28-62 61-61 34-1 62 27 61 61" id="aq"/><g id="l"><use transform="matrix(0.022222222222222223,0,0,0.022222222222222223,0,0)" xlink:href="#ab"/><use transform="matrix(0.022222222222222223,0,0,0.022222222222222223,11.28888888888889,0)" xlink:href="#T"/><use transform="matrix(0.022222222222222223,0,0,0.022222222222222223,24.622222222222224,0)" xlink:href="#R"/><use transform="matrix(0.022222222222222223,0,0,0.022222222222222223,36.62222222222222,0)" xlink:href="#U"/><use transform="matrix(0.022222222222222223,0,0,0.022222222222222223,46.37777777777778,0)" xlink:href="#T"/><use transform="matrix(0.022222222222222223,0,0,0.022222222222222223,59.711111111111116,0)" xlink:href="#L"/><use transform="matrix(0.022222222222222223,0,0,0.022222222222222223,72.13333333333334,0)" xlink:href="#M"/><use transform="matrix(0.022222222222222223,0,0,0.022222222222222223,85.46666666666667,0)" xlink:href="#an"/><use transform="matrix(0.022222222222222223,0,0,0.022222222222222223,90.11111111111111,0)" xlink:href="#aq"/><use transform="matrix(0.022222222222222223,0,0,0.022222222222222223,94.75555555555556,0)" xlink:href="#R"/></g><path d="M81 0v-716h454v128H216v166h287v128H216v166h319V0H81" id="ar"/><path d="M6 0l177-259L7-510h155l100 150 94-150h160L337-259 516 0H361L260-153 161 0H6" id="as"/><g id="m"><use transform="matrix(0.031111111111111103,0,0,0.031111111111111103,0,0)" xlink:href="#ar"/><use transform="matrix(0.031111111111111103,0,0,0.031111111111111103,17.764444444444443,0)" xlink:href="#as"/><use transform="matrix(0.031111111111111103,0,0,0.031111111111111103,34.00444444444444,0)" xlink:href="#af"/><use transform="matrix(0.031111111111111103,0,0,0.031111111111111103,46.13777777777777,0)" xlink:href="#ag"/><use transform="matrix(0.031111111111111103,0,0,0.031111111111111103,64.30666666666666,0)" xlink:href="#ah"/><use transform="matrix(0.031111111111111103,0,0,0.031111111111111103,77.40444444444444,0)" xlink:href="#ae"/><use transform="matrix(0.031111111111111103,0,0,0.031111111111111103,95.97777777777776,0)" xlink:href="#ai"/><use transform="matrix(0.031111111111111103,0,0,0.031111111111111103,113.39999999999998,0)" xlink:href="#aj"/></g><path d="M504-510L189 216h-88c37-81 77-166 114-248L4-510h92c54 126 105 255 162 379l154-379h92" id="at"/><g id="n"><use transform="matrix(0.022222222222222223,0,0,0.022222222222222223,0,0)" xlink:href="#ab"/><use transform="matrix(0.022222222222222223,0,0,0.022222222222222223,11.28888888888889,0)" xlink:href="#T"/><use transform="matrix(0.022222222222222223,0,0,0.022222222222222223,24.622222222222224,0)" xlink:href="#R"/><use transform="matrix(0.022222222222222223,0,0,0.022222222222222223,36.62222222222222,0)" xlink:href="#U"/><use transform="matrix(0.022222222222222223,0,0,0.022222222222222223,46.37777777777778,0)" xlink:href="#Y"/><use transform="matrix(0.022222222222222223,0,0,0.022222222222222223,56.84444444444445,0)" xlink:href="#at"/><use transform="matrix(0.022222222222222223,0,0,0.022222222222222223,68.13333333333334,0)" xlink:href="#V"/><use transform="matrix(0.022222222222222223,0,0,0.022222222222222223,80.55555555555556,0)" xlink:href="#R"/></g><path d="M282-449c-86 0-135 75-135 163V0H62v-510h81v75h4c30-49 84-88 159-91 78-1 135 43 157 99 33-53 90-100 175-99 121-2 176 82 177 199V0h-84v-314c1-91-33-135-115-135-86 0-135 73-135 161V0h-85v-313c1-90-33-136-114-136" id="au"/><path d="M533-20c-1 162-90 248-247 252-120 0-193-60-227-143l78-33c20 54 74 100 149 99 128 1 179-93 166-233h-4c-31 48-94 89-174 88C124 2 35-103 35-258s89-260 239-268c80-1 143 40 174 89h4v-73h81v490zM119-258c2 113 60 191 167 191s165-79 166-191c-1-114-59-191-166-191s-165 78-167 191" id="av"/><g id="o"><use transform="matrix(0.022222222222222223,0,0,0.022222222222222223,0,0)" xlink:href="#ab"/><use transform="matrix(0.022222222222222223,0,0,0.022222222222222223,11.28888888888889,0)" xlink:href="#T"/><use transform="matrix(0.022222222222222223,0,0,0.022222222222222223,24.622222222222224,0)" xlink:href="#R"/><use transform="matrix(0.022222222222222223,0,0,0.022222222222222223,36.62222222222222,0)" xlink:href="#U"/><use transform="matrix(0.022222222222222223,0,0,0.022222222222222223,46.37777777777778,0)" xlink:href="#au"/><use transform="matrix(0.022222222222222223,0,0,0.022222222222222223,65.77777777777779,0)" xlink:href="#av"/><use transform="matrix(0.022222222222222223,0,0,0.022222222222222223,79.00000000000001,0)" xlink:href="#au"/><use transform="matrix(0.022222222222222223,0,0,0.022222222222222223,98.06666666666669,0)" xlink:href="#J"/></g><g id="p"><use transform="matrix(0.022222222222222223,0,0,0.022222222222222223,0,0)" xlink:href="#au"/><use transform="matrix(0.022222222222222223,0,0,0.022222222222222223,19.400000000000002,0)" xlink:href="#X"/><use transform="matrix(0.022222222222222223,0,0,0.022222222222222223,31.200000000000003,0)" xlink:href="#V"/><use transform="matrix(0.022222222222222223,0,0,0.022222222222222223,43.62222222222223,0)" xlink:href="#X"/><use transform="matrix(0.022222222222222223,0,0,0.022222222222222223,55.42222222222223,0)" xlink:href="#av"/><use transform="matrix(0.022222222222222223,0,0,0.022222222222222223,68.64444444444446,0)" xlink:href="#I"/><use transform="matrix(0.022222222222222223,0,0,0.022222222222222223,81.11111111111113,0)" xlink:href="#ac"/></g><g id="q"><use transform="matrix(0.022222222222222223,0,0,0.022222222222222223,0,0)" xlink:href="#aq"/><use transform="matrix(0.022222222222222223,0,0,0.022222222222222223,4.644444444444445,0)" xlink:href="#V"/><use transform="matrix(0.022222222222222223,0,0,0.022222222222222223,17.066666666666666,0)" xlink:href="#Y"/><use transform="matrix(0.022222222222222223,0,0,0.022222222222222223,27.533333333333328,0)" xlink:href="#J"/><use transform="matrix(0.022222222222222223,0,0,0.022222222222222223,35.62222222222222,0)" xlink:href="#X"/><use transform="matrix(0.022222222222222223,0,0,0.022222222222222223,47.42222222222222,0)" xlink:href="#V"/><use transform="matrix(0.022222222222222223,0,0,0.022222222222222223,59.844444444444434,0)" xlink:href="#R"/><use transform="matrix(0.022222222222222223,0,0,0.022222222222222223,71.62222222222222,0)" xlink:href="#I"/></g><g id="r"><use transform="matrix(0.022222222222222223,0,0,0.022222222222222223,0,0)" xlink:href="#av"/><use transform="matrix(0.022222222222222223,0,0,0.022222222222222223,13.222222222222223,0)" xlink:href="#O"/><use transform="matrix(0.022222222222222223,0,0,0.022222222222222223,21,0)" xlink:href="#P"/><use transform="matrix(0.022222222222222223,0,0,0.022222222222222223,34.2,0)" xlink:href="#L"/><use transform="matrix(0.022222222222222223,0,0,0.022222222222222223,46.62222222222223,0)" xlink:href="#T"/></g><path d="M15 0l268-716h155L707 0H558l-60-171H224L164 0H15zm439-295c-30-88-63-174-89-266h-8c-26 92-59 178-89 266h186" id="aw"/><path d="M540-126C502-45 420 17 303 16 139 11 35-91 35-255s104-271 268-271c117 0 201 53 234 140l-120 50c-19-43-55-67-114-68-86 4-135 60-137 149 2 90 50 146 137 150 63 0 97-31 120-73" id="ax"/><path d="M63 0v-510h131V0H63zm150-651c1 45-39 87-84 85-45 2-87-40-85-85-2-45 40-85 85-84 45-1 85 39 84 84" id="ay"/><path d="M220 0L4-510h149l129 332h8l131-332h147L350 0H220" id="az"/><g id="s"><use transform="matrix(0.031111111111111103,0,0,0.031111111111111103,0,0)" xlink:href="#aw"/><use transform="matrix(0.031111111111111103,0,0,0.031111111111111103,22.462222222222216,0)" xlink:href="#ax"/><use transform="matrix(0.031111111111111103,0,0,0.031111111111111103,39.79111111111111,0)" xlink:href="#af"/><use transform="matrix(0.031111111111111103,0,0,0.031111111111111103,52.70222222222222,0)" xlink:href="#ay"/><use transform="matrix(0.031111111111111103,0,0,0.031111111111111103,60.69777777777777,0)" xlink:href="#az"/><use transform="matrix(0.031111111111111103,0,0,0.031111111111111103,77.8711111111111,0)" xlink:href="#ag"/></g><path d="M81 0v-716h454v128H216v174h287v128H216V0H81" id="aA"/><path d="M578-255C578-91 472 16 307 16S35-91 35-255s107-271 272-271 271 107 271 271zm-412 0c1 91 55 149 141 149 87 0 138-59 140-149-2-90-54-149-139-149-87 0-141 58-142 149" id="aB"/><path d="M559-35c-3 167-95 264-261 267-127 0-211-59-247-148l123-50c19 45 63 82 124 82 99 0 146-73 135-186h-8C395-27 343 0 273 0 127 0 35-108 35-263s91-263 238-263c71 0 123 26 152 70h8v-54h126v475zM166-263c1 88 50 144 134 144 83 0 132-57 133-144-1-89-50-144-133-144-84 0-134 55-134 144" id="aC"/><g id="t"><use transform="matrix(0.031111111111111103,0,0,0.031111111111111103,0,0)" xlink:href="#aA"/><use transform="matrix(0.031111111111111103,0,0,0.031111111111111103,16.98666666666666,0)" xlink:href="#aB"/><use transform="matrix(0.031111111111111103,0,0,0.031111111111111103,36.05777777777777,0)" xlink:href="#ah"/><use transform="matrix(0.031111111111111103,0,0,0.031111111111111103,49.466666666666654,0)" xlink:href="#af"/><use transform="matrix(0.031111111111111103,0,0,0.031111111111111103,62.377777777777766,0)" xlink:href="#ay"/><use transform="matrix(0.031111111111111103,0,0,0.031111111111111103,70.37333333333332,0)" xlink:href="#aC"/><use transform="matrix(0.031111111111111103,0,0,0.031111111111111103,89.72444444444443,0)" xlink:href="#ai"/><use transform="matrix(0.031111111111111103,0,0,0.031111111111111103,106.67999999999998,0)" xlink:href="#af"/><use transform="matrix(0.031111111111111103,0,0,0.031111111111111103,118.81333333333332,0)" xlink:href="#ag"/></g><use transform="matrix(0.031111111111111103,0,0,0.031111111111111103,0,0)" xlink:href="#aw" id="u"/><g id="v"><use transform="matrix(0.026666666666666665,0,0,0.026666666666666665,0,0)" xlink:href="#am"/><use transform="matrix(0.026666666666666665,0,0,0.026666666666666665,19.626666666666665,0)" xlink:href="#P"/><use transform="matrix(0.026666666666666665,0,0,0.026666666666666665,35.46666666666666,0)" xlink:href="#au"/><use transform="matrix(0.026666666666666665,0,0,0.026666666666666665,58.74666666666665,0)" xlink:href="#T"/><use transform="matrix(0.026666666666666665,0,0,0.026666666666666665,74.74666666666666,0)" xlink:href="#L"/><use transform="matrix(0.026666666666666665,0,0,0.026666666666666665,89.65333333333332,0)" xlink:href="#J"/><use transform="matrix(0.026666666666666665,0,0,0.026666666666666665,98.69333333333331,0)" xlink:href="#I"/></g><g id="w"><use transform="matrix(0.026666666666666665,0,0,0.026666666666666665,0,0)" xlink:href="#aa"/><use transform="matrix(0.026666666666666665,0,0,0.026666666666666665,6.4799999999999995,0)" xlink:href="#V"/><use transform="matrix(0.026666666666666665,0,0,0.026666666666666665,21.386666666666667,0)" xlink:href="#Y"/><use transform="matrix(0.026666666666666665,0,0,0.026666666666666665,33.946666666666665,0)" xlink:href="#J"/><use transform="matrix(0.026666666666666665,0,0,0.026666666666666665,43.65333333333333,0)" xlink:href="#X"/><use transform="matrix(0.026666666666666665,0,0,0.026666666666666665,57.81333333333333,0)" xlink:href="#V"/><use transform="matrix(0.026666666666666665,0,0,0.026666666666666665,72.72,0)" xlink:href="#R"/><use transform="matrix(0.026666666666666665,0,0,0.026666666666666665,86.85333333333332,0)" xlink:href="#I"/></g><path d="M577-490c0 142-101 223-244 227H216V0H81v-716h252c143 5 244 84 244 226zm-133 0c0-62-42-98-107-98H216v197h121c65-1 107-37 107-99" id="aD"/><path d="M473-150C478 36 169 60 69-53c-19-21-34-43-43-68l117-51c20 43 56 72 114 73 38-1 88-10 84-49-6-64-93-57-148-73-74-21-142-63-144-153-4-163 255-190 362-104 20 16 36 38 48 63l-112 49c-18-35-50-50-96-54-54-4-103 46-54 77 66 41 191 40 237 97 23 29 39 59 39 96" id="aE"/><g id="x"><use transform="matrix(0.031111111111111103,0,0,0.031111111111111103,0,0)" xlink:href="#aD"/><use transform="matrix(0.031111111111111103,0,0,0.031111111111111103,18.293333333333326,0)" xlink:href="#ai"/><use transform="matrix(0.031111111111111103,0,0,0.031111111111111103,35.71555555555554,0)" xlink:href="#aE"/><use transform="matrix(0.031111111111111103,0,0,0.031111111111111103,51.36444444444442,0)" xlink:href="#aE"/><use transform="matrix(0.031111111111111103,0,0,0.031111111111111103,67.0133333333333,0)" xlink:href="#ay"/><use transform="matrix(0.031111111111111103,0,0,0.031111111111111103,75.00888888888886,0)" xlink:href="#az"/><use transform="matrix(0.031111111111111103,0,0,0.031111111111111103,92.1822222222222,0)" xlink:href="#ag"/></g><use transform="matrix(0.031111111111111103,0,0,0.031111111111111103,0,0)" xlink:href="#al" id="y"/><g id="z"><use transform="matrix(0.022222222222222223,0,0,0.022222222222222223,0,0)" xlink:href="#T"/><use transform="matrix(0.022222222222222223,0,0,0.022222222222222223,13.333333333333334,0)" xlink:href="#O"/><use transform="matrix(0.022222222222222223,0,0,0.022222222222222223,21.555555555555557,0)" xlink:href="#Q"/><use transform="matrix(0.022222222222222223,0,0,0.022222222222222223,26.2,0)" xlink:href="#U"/><use transform="matrix(0.022222222222222223,0,0,0.022222222222222223,35.95555555555556,0)" xlink:href="#T"/><use transform="matrix(0.022222222222222223,0,0,0.022222222222222223,49.2888888888889,0)" xlink:href="#U"/><use transform="matrix(0.022222222222222223,0,0,0.022222222222222223,59.044444444444444,0)" xlink:href="#Y"/><use transform="matrix(0.022222222222222223,0,0,0.022222222222222223,69.51111111111112,0)" xlink:href="#W"/><use transform="matrix(0.022222222222222223,0,0,0.022222222222222223,82.00000000000001,0)" xlink:href="#X"/><use transform="matrix(0.022222222222222223,0,0,0.022222222222222223,93.8,0)" xlink:href="#O"/><use transform="matrix(0.022222222222222223,0,0,0.022222222222222223,101.5777777777778,0)" xlink:href="#I"/><use transform="matrix(0.022222222222222223,0,0,0.022222222222222223,114.04444444444447,0)" xlink:href="#ac"/><use transform="matrix(0.022222222222222223,0,0,0.022222222222222223,127.37777777777781,0)" xlink:href="#U"/><use transform="matrix(0.022222222222222223,0,0,0.022222222222222223,137.13333333333335,0)" xlink:href="#M"/><use transform="matrix(0.022222222222222223,0,0,0.022222222222222223,150.4666666666667,0)" xlink:href="#X"/><use transform="matrix(0.022222222222222223,0,0,0.022222222222222223,162.2666666666667,0)" xlink:href="#Y"/><use transform="matrix(0.022222222222222223,0,0,0.022222222222222223,172.73333333333338,0)" xlink:href="#I"/></g><path d="M62 0v-716h85v449l240-243h108v4L294-305 501-4v4H399L235-245l-88 88V0H62" id="aF"/><g id="A"><use transform="matrix(0.022222222222222223,0,0,0.022222222222222223,0,0)" xlink:href="#ab"/><use transform="matrix(0.022222222222222223,0,0,0.022222222222222223,11.28888888888889,0)" xlink:href="#T"/><use transform="matrix(0.022222222222222223,0,0,0.022222222222222223,24.622222222222224,0)" xlink:href="#R"/><use transform="matrix(0.022222222222222223,0,0,0.022222222222222223,36.62222222222222,0)" xlink:href="#U"/><use transform="matrix(0.022222222222222223,0,0,0.022222222222222223,46.37777777777778,0)" xlink:href="#T"/><use transform="matrix(0.022222222222222223,0,0,0.022222222222222223,59.711111111111116,0)" xlink:href="#U"/><use transform="matrix(0.022222222222222223,0,0,0.022222222222222223,69.46666666666667,0)" xlink:href="#Y"/><use transform="matrix(0.022222222222222223,0,0,0.022222222222222223,79.93333333333334,0)" xlink:href="#W"/><use transform="matrix(0.022222222222222223,0,0,0.022222222222222223,92.42222222222223,0)" xlink:href="#X"/><use transform="matrix(0.022222222222222223,0,0,0.022222222222222223,104.22222222222223,0)" xlink:href="#O"/><use transform="matrix(0.022222222222222223,0,0,0.022222222222222223,112,0)" xlink:href="#I"/><use transform="matrix(0.022222222222222223,0,0,0.022222222222222223,124.4666666666667,0)" xlink:href="#ac"/><use transform="matrix(0.022222222222222223,0,0,0.022222222222222223,137.8,0)" xlink:href="#U"/><use transform="matrix(0.022222222222222223,0,0,0.022222222222222223,147.55555555555557,0)" xlink:href="#M"/><use transform="matrix(0.022222222222222223,0,0,0.022222222222222223,160.8888888888889,0)" xlink:href="#X"/><use transform="matrix(0.022222222222222223,0,0,0.022222222222222223,172.68888888888893,0)" xlink:href="#Y"/><use transform="matrix(0.022222222222222223,0,0,0.022222222222222223,183.1555555555556,0)" xlink:href="#I"/><use transform="matrix(0.022222222222222223,0,0,0.022222222222222223,195.62222222222226,0)" xlink:href="#U"/><use transform="matrix(0.022222222222222223,0,0,0.022222222222222223,205.37777777777782,0)" xlink:href="#Y"/><use transform="matrix(0.022222222222222223,0,0,0.022222222222222223,215.8444444444445,0)" xlink:href="#T"/><use transform="matrix(0.022222222222222223,0,0,0.022222222222222223,229.17777777777783,0)" xlink:href="#P"/><use transform="matrix(0.022222222222222223,0,0,0.022222222222222223,242.37777777777782,0)" xlink:href="#aF"/><use transform="matrix(0.022222222222222223,0,0,0.022222222222222223,253.24444444444444,0)" xlink:href="#I"/></g><path d="M515-191C511-52 414 16 279 16 146 16 61-66 29-178l81-33c20 74 80 146 171 146 106 0 193-96 131-186-84-123-356-79-356-291 0-119 94-186 218-190 117-1 187 64 220 144l-79 34c-20-54-63-98-140-97-72 3-133 38-133 109 0 116 161 113 246 161 67 37 127 87 127 190" id="aG"/><g id="B"><use transform="matrix(0.022222222222222223,0,0,0.022222222222222223,0,0)" xlink:href="#aG"/><use transform="matrix(0.022222222222222223,0,0,0.022222222222222223,12.333333333333334,0)" xlink:href="#L"/><use transform="matrix(0.022222222222222223,0,0,0.022222222222222223,24.755555555555556,0)" xlink:href="#M"/><use transform="matrix(0.022222222222222223,0,0,0.022222222222222223,38.08888888888889,0)" xlink:href="#V"/><use transform="matrix(0.022222222222222223,0,0,0.022222222222222223,50.51111111111111,0)" xlink:href="#I"/><use transform="matrix(0.022222222222222223,0,0,0.022222222222222223,62.644444444444446,0)" xlink:href="#J"/></g><g id="C"><use transform="matrix(0.022222222222222223,0,0,0.022222222222222223,0,0)" xlink:href="#Y"/><use transform="matrix(0.022222222222222223,0,0,0.022222222222222223,10.466666666666667,0)" xlink:href="#L"/><use transform="matrix(0.022222222222222223,0,0,0.022222222222222223,22.88888888888889,0)" xlink:href="#M"/><use transform="matrix(0.022222222222222223,0,0,0.022222222222222223,36.22222222222222,0)" xlink:href="#U"/><use transform="matrix(0.022222222222222223,0,0,0.022222222222222223,45.97777777777777,0)" xlink:href="#Y"/><use transform="matrix(0.022222222222222223,0,0,0.022222222222222223,56.44444444444445,0)" xlink:href="#W"/><use transform="matrix(0.022222222222222223,0,0,0.022222222222222223,68.93333333333334,0)" xlink:href="#X"/><use transform="matrix(0.022222222222222223,0,0,0.022222222222222223,80.73333333333333,0)" xlink:href="#O"/><use transform="matrix(0.022222222222222223,0,0,0.022222222222222223,88.51111111111112,0)" xlink:href="#I"/><use transform="matrix(0.022222222222222223,0,0,0.022222222222222223,100.97777777777779,0)" xlink:href="#ac"/><use transform="matrix(0.022222222222222223,0,0,0.022222222222222223,114.31111111111112,0)" xlink:href="#U"/><use transform="matrix(0.022222222222222223,0,0,0.022222222222222223,124.06666666666668,0)" xlink:href="#M"/><use transform="matrix(0.022222222222222223,0,0,0.022222222222222223,137.4,0)" xlink:href="#X"/><use transform="matrix(0.022222222222222223,0,0,0.022222222222222223,149.20000000000002,0)" xlink:href="#Y"/><use transform="matrix(0.022222222222222223,0,0,0.022222222222222223,159.66666666666669,0)" xlink:href="#I"/><use transform="matrix(0.022222222222222223,0,0,0.022222222222222223,172.13333333333335,0)" xlink:href="#U"/><use transform="matrix(0.022222222222222223,0,0,0.022222222222222223,181.8888888888889,0)" xlink:href="#X"/></g><g id="D"><use transform="matrix(0.022222222222222223,0,0,0.022222222222222223,0,0)" xlink:href="#Y"/><use transform="matrix(0.022222222222222223,0,0,0.022222222222222223,10.466666666666667,0)" xlink:href="#L"/><use transform="matrix(0.022222222222222223,0,0,0.022222222222222223,22.88888888888889,0)" xlink:href="#M"/><use transform="matrix(0.022222222222222223,0,0,0.022222222222222223,36.22222222222222,0)" xlink:href="#U"/><use transform="matrix(0.022222222222222223,0,0,0.022222222222222223,45.97777777777777,0)" xlink:href="#Y"/><use transform="matrix(0.022222222222222223,0,0,0.022222222222222223,56.44444444444445,0)" xlink:href="#W"/><use transform="matrix(0.022222222222222223,0,0,0.022222222222222223,68.93333333333334,0)" xlink:href="#X"/><use transform="matrix(0.022222222222222223,0,0,0.022222222222222223,80.73333333333333,0)" xlink:href="#O"/><use transform="matrix(0.022222222222222223,0,0,0.022222222222222223,88.51111111111112,0)" xlink:href="#I"/><use transform="matrix(0.022222222222222223,0,0,0.022222222222222223,100.97777777777779,0)" xlink:href="#ac"/><use transform="matrix(0.022222222222222223,0,0,0.022222222222222223,114.31111111111112,0)" xlink:href="#U"/><use transform="matrix(0.022222222222222223,0,0,0.022222222222222223,124.06666666666668,0)" xlink:href="#M"/><use transform="matrix(0.022222222222222223,0,0,0.022222222222222223,137.4,0)" xlink:href="#X"/><use transform="matrix(0.022222222222222223,0,0,0.022222222222222223,149.20000000000002,0)" xlink:href="#Y"/><use transform="matrix(0.022222222222222223,0,0,0.022222222222222223,159.66666666666669,0)" xlink:href="#I"/><use transform="matrix(0.022222222222222223,0,0,0.022222222222222223,172.13333333333335,0)" xlink:href="#U"/><use transform="matrix(0.022222222222222223,0,0,0.022222222222222223,181.8888888888889,0)" xlink:href="#M"/></g><g id="E"><use transform="matrix(0.022222222222222223,0,0,0.022222222222222223,0,0)" xlink:href="#T"/><use transform="matrix(0.022222222222222223,0,0,0.022222222222222223,13.333333333333334,0)" xlink:href="#O"/><use transform="matrix(0.022222222222222223,0,0,0.022222222222222223,21.555555555555557,0)" xlink:href="#Q"/><use transform="matrix(0.022222222222222223,0,0,0.022222222222222223,26.2,0)" xlink:href="#U"/><use transform="matrix(0.022222222222222223,0,0,0.022222222222222223,35.95555555555556,0)" xlink:href="#Y"/><use transform="matrix(0.022222222222222223,0,0,0.022222222222222223,46.42222222222223,0)" xlink:href="#I"/><use transform="matrix(0.022222222222222223,0,0,0.022222222222222223,58.8888888888889,0)" xlink:href="#O"/><use transform="matrix(0.022222222222222223,0,0,0.022222222222222223,67.44444444444446,0)" xlink:href="#ab"/><use transform="matrix(0.022222222222222223,0,0,0.022222222222222223,78.73333333333335,0)" xlink:href="#aq"/><use transform="matrix(0.022222222222222223,0,0,0.022222222222222223,83.3777777777778,0)" xlink:href="#R"/><use transform="matrix(0.022222222222222223,0,0,0.022222222222222223,95.15555555555557,0)" xlink:href="#I"/><use transform="matrix(0.022222222222222223,0,0,0.022222222222222223,107.62222222222222,0)" xlink:href="#U"/><use transform="matrix(0.022222222222222223,0,0,0.022222222222222223,117.37777777777781,0)" xlink:href="#T"/><use transform="matrix(0.022222222222222223,0,0,0.022222222222222223,130.71111111111114,0)" xlink:href="#O"/><use transform="matrix(0.022222222222222223,0,0,0.022222222222222223,138.4888888888889,0)" xlink:href="#P"/><use transform="matrix(0.022222222222222223,0,0,0.022222222222222223,151.6888888888889,0)" xlink:href="#Q"/><use transform="matrix(0.022222222222222223,0,0,0.022222222222222223,156.33333333333334,0)" xlink:href="#I"/><use transform="matrix(0.022222222222222223,0,0,0.022222222222222223,168.8,0)" xlink:href="#R"/><use transform="matrix(0.022222222222222223,0,0,0.022222222222222223,180.8,0)" xlink:href="#J"/></g><g id="F"><use transform="matrix(0.022222222222222223,0,0,0.022222222222222223,0,0)" xlink:href="#ab"/><use transform="matrix(0.022222222222222223,0,0,0.022222222222222223,11.28888888888889,0)" xlink:href="#T"/><use transform="matrix(0.022222222222222223,0,0,0.022222222222222223,24.622222222222224,0)" xlink:href="#R"/><use transform="matrix(0.022222222222222223,0,0,0.022222222222222223,36.62222222222222,0)" xlink:href="#U"/><use transform="matrix(0.022222222222222223,0,0,0.022222222222222223,46.37777777777778,0)" xlink:href="#T"/><use transform="matrix(0.022222222222222223,0,0,0.022222222222222223,59.711111111111116,0)" xlink:href="#U"/><use transform="matrix(0.022222222222222223,0,0,0.022222222222222223,69.46666666666667,0)" xlink:href="#Y"/><use transform="matrix(0.022222222222222223,0,0,0.022222222222222223,79.93333333333334,0)" xlink:href="#T"/><use transform="matrix(0.022222222222222223,0,0,0.022222222222222223,93.26666666666667,0)" xlink:href="#P"/><use transform="matrix(0.022222222222222223,0,0,0.022222222222222223,106.46666666666667,0)" xlink:href="#aF"/><use transform="matrix(0.022222222222222223,0,0,0.022222222222222223,117.33333333333334,0)" xlink:href="#I"/></g><path d="M211 0L17-716h94c47 192 95 383 142 575h4c58-192 117-383 175-575h88c56 192 111 384 168 575h4c47-192 94-383 141-575h94L734 0h-88c-56-191-113-382-168-574h-4C416-383 357-191 299 0h-88" id="aH"/><g id="G"><use transform="matrix(0.031111111111111103,0,0,0.031111111111111103,0,0)" xlink:href="#aH"/><use transform="matrix(0.031111111111111103,0,0,0.031111111111111103,28.43555555555555,0)" xlink:href="#P"/><use transform="matrix(0.031111111111111103,0,0,0.031111111111111103,46.91555555555554,0)" xlink:href="#O"/><use transform="matrix(0.031111111111111103,0,0,0.031111111111111103,58.42666666666665,0)" xlink:href="#aF"/><use transform="matrix(0.031111111111111103,0,0,0.031111111111111103,74.10666666666664,0)" xlink:href="#an"/><use transform="matrix(0.031111111111111103,0,0,0.031111111111111103,80.60888888888886,0)" xlink:href="#P"/><use transform="matrix(0.031111111111111103,0,0,0.031111111111111103,99.08888888888885,0)" xlink:href="#X"/><use transform="matrix(0.031111111111111103,0,0,0.031111111111111103,115.60888888888884,0)" xlink:href="#ac"/></g></defs></g></svg>